<svg xmlns="http://www.w3.org/2000/svg" width="64" height="64" fill="none"><path fill="#fff" d="m33.98 46.5 7.55-.12c6.175 0 11.18-9.375 11.18-20.94 0-11.565-5.005-20.94-11.18-20.94l-19.16.03c-1.33 0-8 4.89-9.91 10.79a42.45 42.45 0 0 0-.1 25.18 33.71 33.71 0 0 0 13.35 18.27h19.35c-5.787-4.709-8.15-7.398-11.08-12.27Z"/><path fill="#18181B" fill-rule="evenodd" d="M39.157 20.408c-.674 1.262-1.107 3.04-1.107 5.032s.433 3.77 1.107 5.032c.686 1.284 1.548 1.918 2.373 1.918.825 0 1.688-.634 2.374-1.918.674-1.262 1.106-3.04 1.106-5.032s-.432-3.77-1.106-5.032c-.686-1.284-1.549-1.918-2.374-1.918-.825 0-1.687.634-2.373 1.918Zm-.882-.472c.755-1.412 1.882-2.446 3.255-2.446s2.5 1.034 3.256 2.447c.766 1.433 1.224 3.38 1.224 5.503s-.458 4.07-1.224 5.504c-.755 1.412-1.883 2.446-3.256 2.446-1.373 0-2.5-1.034-3.255-2.446-.766-1.434-1.225-3.381-1.225-5.504 0-2.123.459-4.07 1.225-5.504Z" clip-rule="evenodd"/><path fill="#18181B" fill-rule="evenodd" d="M38.275 19.936c.755-1.412 1.882-2.446 3.255-2.446s2.5 1.034 3.256 2.447c.766 1.433 1.224 3.38 1.224 5.503s-.458 4.07-1.224 5.504c-.755 1.412-1.883 2.446-3.256 2.446-1.373 0-2.5-1.034-3.255-2.446-.766-1.434-1.225-3.381-1.225-5.504 0-2.123.459-4.07 1.225-5.504Zm.882.472c-.674 1.262-1.107 3.04-1.107 5.032s.433 3.77 1.107 5.032c.686 1.284 1.548 1.918 2.373 1.918.825 0 1.688-.634 2.374-1.918.674-1.262 1.106-3.04 1.106-5.032s-.432-3.77-1.106-5.032c-.686-1.284-1.549-1.918-2.374-1.918-.825 0-1.687.634-2.373 1.918Z" clip-rule="evenodd"/><path fill="#18181B" fill-rule="evenodd" d="M41.53 17.49c-1.373 0-2.5 1.034-3.255 2.447-.766 1.433-1.225 3.38-1.225 5.503s.459 4.07 1.225 5.504c.755 1.412 1.882 2.446 3.255 2.446s2.5-1.034 3.256-2.446c.766-1.434 1.224-3.381 1.224-5.504 0-2.123-.458-4.07-1.224-5.504-.755-1.412-1.883-2.446-3.256-2.446Zm-3.48 7.95c0-1.992.433-3.77 1.107-5.032.686-1.284 1.548-1.918 2.373-1.918.825 0 1.688.634 2.374 1.918.674 1.262 1.106 3.04 1.106 5.032s-.432 3.77-1.106 5.032c-.686 1.284-1.549 1.918-2.374 1.918-.825 0-1.687-.634-2.373-1.918-.674-1.262-1.107-3.04-1.107-5.032Z" clip-rule="evenodd"/><path fill="#18181B" fill-rule="evenodd" d="M49.877 10.398C47.819 6.544 44.842 4 41.48 4H22.37c-.283 0-.617.149-.94.298-.341.158-.74.386-1.174.67-.87.568-1.911 1.383-2.967 2.381-2.103 1.99-4.313 4.756-5.304 7.817l-.002.004a42.95 42.95 0 0 0-.101 25.475 34.21 34.21 0 0 0 13.547 18.538.5.5 0 0 0 .281.087h19.35a.5.5 0 0 0 .34-.868l-.597-.565a94.887 94.887 0 0 1-6.529-6.979 68.373 68.373 0 0 1-3.118-3.978h6.374c3.362 0 6.29-2.544 8.347-6.398 2.069-3.875 3.333-9.194 3.333-15.042 0-5.848-1.264-11.167-3.333-15.042ZM30.85 25.44c0 5.717 1.239 10.868 3.216 14.571 1.989 3.725 4.651 5.87 7.464 5.87 2.813 0 5.476-2.145 7.465-5.87 1.977-3.703 3.215-8.854 3.215-14.57 0-5.718-1.238-10.869-3.215-14.572-1.808-3.385-4.171-5.465-6.699-5.816-2.039.395-3.488.949-4.777 2.016-1.338 1.108-2.546 2.802-4.028 5.567l-.002.003c-.395.726-.76 1.476-1.093 2.248-.979 3.076-1.546 6.685-1.546 10.553Zm2.334 15.042c-2.07-3.875-3.334-9.194-3.334-15.042-.375 3.734-.248 7.304.355 11.326.323 2.154 1.412 4.583 2.9 7.038.422.695.873 1.389 1.346 2.076h3.518c-1.865-1.083-3.496-2.983-4.785-5.398ZM43.813 58.27a95.821 95.821 0 0 1-6.304-6.768c-1.844-2.19-3.738-4.672-5.258-7.18-1.005-1.657-1.857-3.341-2.42-4.972h-4.043c.36.976.774 1.905 1.244 2.783 3.112 5.814 8.075 12.288 12.886 16.137h3.895ZM32.61 12.162c1.498-2.794 2.78-4.629 4.272-5.863A8.983 8.983 0 0 1 38.91 5.03h-4.538c-.222.182-.695.576-1.086.93-.783.709-1.846 1.75-2.96 3.074-2.234 2.654-4.655 6.416-5.48 10.901-1.147 6.175-1.096 12.026.178 16.958l4.179-.065c-1.191-8.03-.516-15.853 2.256-22.293.35-.813.734-1.605 1.151-2.373ZM22.37 5.03c-.05 0-.214.034-.519.175-.285.132-.64.333-1.048.6-.815.532-1.81 1.309-2.827 2.27-2.04 1.931-4.12 4.56-5.04 7.397a41.95 41.95 0 0 0-.954 21.623l3.752-.058c-2.127-12.605.515-19.855 1.48-22.385.734-1.933 2.131-3.963 3.76-5.787A29.949 29.949 0 0 1 25.11 5.03h-2.74Zm-9.532 35.324.002.004A33.21 33.21 0 0 0 25.865 58.27h3.659c-.234-.18-.497-.385-.783-.617a43.707 43.707 0 0 1-4.55-4.265c-3.129-3.387-6.532-8.175-7.99-14.038h-3.656c.093.335.191.67.293 1.004Zm10.978-20.59c.867-4.707 3.398-8.622 5.693-11.348 1.15-1.365 2.484-2.652 3.294-3.386H26.83c-1.676 1.12-3.527 2.73-5.11 4.5-1.585 1.776-2.897 3.701-3.572 5.478-.925 2.427-3.538 9.54-1.402 22.013l7.207-.112c-1.263-5.054-1.283-10.97-.137-17.144Zm1.11 32.946a42.721 42.721 0 0 0 4.444 4.166c.27.218.57.477.846.718.33.285.628.544.81.676h7.352c-4.692-3.989-9.28-10.088-12.277-15.688a23.19 23.19 0 0 1-1.417-3.232h-7.45c1.433 5.53 4.668 10.087 7.692 13.36Z" clip-rule="evenodd"/></svg>